<svg width="312" height="79" viewBox="0 0 312 79" fill="none" xmlns="http://www.w3.org/2000/svg">
<path d="M9.93182 30.4545C7.88636 30.4545 6.125 29.9716 4.64773 29.0057C3.17045 28.0398 2.03409 26.7093 1.23864 25.0142C0.443182 23.3191 0.0454547 21.3826 0.0454547 19.2045C0.0454547 16.9886 0.452652 15.0331 1.26705 13.3381C2.09091 11.6335 3.23674 10.303 4.70455 9.34659C6.18182 8.38068 7.9053 7.89773 9.875 7.89773C11.4091 7.89773 12.7917 8.18182 14.0227 8.75C15.2538 9.31818 16.2623 10.1136 17.0483 11.1364C17.8343 12.1591 18.322 13.3523 18.5114 14.7159H15.1591C14.9034 13.7216 14.3352 12.8409 13.4545 12.0739C12.5833 11.2973 11.4091 10.9091 9.93182 10.9091C8.625 10.9091 7.47917 11.25 6.49432 11.9318C5.51894 12.6042 4.75663 13.5559 4.20739 14.7869C3.66761 16.0085 3.39773 17.4432 3.39773 19.0909C3.39773 20.7765 3.66288 22.2443 4.19318 23.4943C4.73295 24.7443 5.49053 25.715 6.46591 26.4062C7.45076 27.0975 8.60606 27.4432 9.93182 27.4432C10.803 27.4432 11.5938 27.2917 12.304 26.9886C13.0142 26.6856 13.6155 26.25 14.108 25.6818C14.6004 25.1136 14.9508 24.4318 15.1591 23.6364H18.5114C18.322 24.9242 17.8532 26.0843 17.1051 27.1165C16.3665 28.1392 15.3864 28.9536 14.1648 29.5597C12.9527 30.1562 11.5417 30.4545 9.93182 30.4545ZM23.4119 8.18182H26.7642V31.5909C26.7642 32.9356 26.5322 34.1004 26.0682 35.0852C25.6136 36.0701 24.9223 36.8324 23.9943 37.3722C23.0758 37.9119 21.9157 38.1818 20.5142 38.1818C20.4006 38.1818 20.2869 38.1818 20.1733 38.1818C20.0597 38.1818 19.946 38.1818 19.8324 38.1818V35.0568C19.946 35.0568 20.0502 35.0568 20.1449 35.0568C20.2396 35.0568 20.3438 35.0568 20.4574 35.0568C21.4801 35.0568 22.2282 34.7538 22.7017 34.1477C23.1752 33.5511 23.4119 32.6989 23.4119 31.5909V8.18182ZM25.0597 4.54545C24.4063 4.54545 23.8428 4.32292 23.3693 3.87784C22.9053 3.43277 22.6733 2.89773 22.6733 2.27273C22.6733 1.64773 22.9053 1.11269 23.3693 0.667613C23.8428 0.222538 24.4063 0 25.0597 0C25.7131 0 26.2718 0.222538 26.7358 0.667613C27.2093 1.11269 27.446 1.64773 27.446 2.27273C27.446 2.89773 27.2093 3.43277 26.7358 3.87784C26.2718 4.32292 25.7131 4.54545 25.0597 4.54545ZM41.7678 30.4545C39.7223 30.4545 37.9609 29.9716 36.4837 29.0057C35.0064 28.0398 33.87 26.7093 33.0746 25.0142C32.2791 23.3191 31.8814 21.3826 31.8814 19.2045C31.8814 16.9886 32.2886 15.0331 33.103 13.3381C33.9268 11.6335 35.0727 10.303 36.5405 9.34659C38.0178 8.38068 39.7412 7.89773 41.7109 7.89773C43.245 7.89773 44.6276 8.18182 45.8587 8.75C47.0897 9.31818 48.0982 10.1136 48.8842 11.1364C49.6702 12.1591 50.1579 13.3523 50.3473 14.7159H46.995C46.7393 13.7216 46.1712 12.8409 45.2905 12.0739C44.4193 11.2973 43.245 10.9091 41.7678 10.9091C40.4609 10.9091 39.3151 11.25 38.3303 11.9318C37.3549 12.6042 36.5926 13.5559 36.0433 14.7869C35.5036 16.0085 35.2337 17.4432 35.2337 19.0909C35.2337 20.7765 35.4988 22.2443 36.0291 23.4943C36.5689 24.7443 37.3265 25.715 38.3018 26.4062C39.2867 27.0975 40.442 27.4432 41.7678 27.4432C42.639 27.4432 43.4297 27.2917 44.1399 26.9886C44.8501 26.6856 45.4515 26.25 45.9439 25.6818C46.4363 25.1136 46.7867 24.4318 46.995 23.6364H50.3473C50.1579 24.9242 49.6892 26.0843 48.9411 27.1165C48.2024 28.1392 47.2223 28.9536 46.0007 29.5597C44.7886 30.1562 43.3776 30.4545 41.7678 30.4545ZM74.7365 30.4545C72.9183 30.4545 71.3132 29.9953 69.9212 29.0767C68.5291 28.1487 67.4401 26.8419 66.6541 25.1562C65.8681 23.4612 65.4751 21.4583 65.4751 19.1477C65.4751 16.8561 65.8681 14.8674 66.6541 13.1818C67.4401 11.4962 68.5339 10.1941 69.9354 9.27557C71.3369 8.35701 72.9562 7.89773 74.7933 7.89773C76.2138 7.89773 77.3359 8.13447 78.1598 8.60795C78.9931 9.07197 79.6276 9.60227 80.0632 10.1989C80.5083 10.786 80.8539 11.2689 81.1001 11.6477H81.3842V0.90909H84.7365V30H81.4979V26.6477H81.1001C80.8539 27.0455 80.5036 27.5473 80.049 28.1534C79.5945 28.75 78.9458 29.285 78.103 29.7585C77.2602 30.2225 76.138 30.4545 74.7365 30.4545ZM75.1911 27.4432C76.5357 27.4432 77.6721 27.0928 78.6001 26.392C79.5282 25.6818 80.2337 24.7017 80.7166 23.4517C81.1996 22.1922 81.4411 20.7386 81.4411 19.0909C81.4411 17.4621 81.2043 16.0369 80.7308 14.8153C80.2573 13.5843 79.5566 12.6278 78.6286 11.946C77.7005 11.2547 76.5547 10.9091 75.1911 10.9091C73.7706 10.9091 72.5869 11.2737 71.6399 12.0028C70.7024 12.7225 69.9969 13.7027 69.5234 14.9432C69.0594 16.1742 68.8274 17.5568 68.8274 19.0909C68.8274 20.6439 69.0642 22.0549 69.5376 23.3239C70.0206 24.5833 70.7308 25.5871 71.6683 26.3352C72.6153 27.0739 73.7895 27.4432 75.1911 27.4432ZM100.205 30.4545C98.1598 30.4545 96.3984 29.9716 94.9212 29.0057C93.4439 28.0398 92.3075 26.7093 91.5121 25.0142C90.7166 23.3191 90.3189 21.3826 90.3189 19.2045C90.3189 16.9886 90.7261 15.0331 91.5405 13.3381C92.3643 11.6335 93.5102 10.303 94.978 9.34659C96.4553 8.38068 98.1787 7.89773 100.148 7.89773C101.683 7.89773 103.065 8.18182 104.296 8.75C105.527 9.31818 106.536 10.1136 107.322 11.1364C108.108 12.1591 108.595 13.3523 108.785 14.7159H105.433C105.177 13.7216 104.609 12.8409 103.728 12.0739C102.857 11.2973 101.683 10.9091 100.205 10.9091C98.8984 10.9091 97.7526 11.25 96.7678 11.9318C95.7924 12.6042 95.0301 13.5559 94.4808 14.7869C93.9411 16.0085 93.6712 17.4432 93.6712 19.0909C93.6712 20.7765 93.9363 22.2443 94.4666 23.4943C95.0064 24.7443 95.764 25.715 96.7393 26.4062C97.7242 27.0975 98.8795 27.4432 100.205 27.4432C101.076 27.4432 101.867 27.2917 102.577 26.9886C103.288 26.6856 103.889 26.25 104.381 25.6818C104.874 25.1136 105.224 24.4318 105.433 23.6364H108.785C108.595 24.9242 108.127 26.0843 107.379 27.1165C106.64 28.1392 105.66 28.9536 104.438 29.5597C103.226 30.1562 101.815 30.4545 100.205 30.4545ZM117.038 16.875V30H113.685V8.18182H116.924V11.5909H117.208C117.719 10.483 118.496 9.5928 119.538 8.92045C120.579 8.23864 121.924 7.89773 123.572 7.89773C125.049 7.89773 126.342 8.20076 127.45 8.80682C128.558 9.40341 129.419 10.3125 130.035 11.5341C130.65 12.7462 130.958 14.2803 130.958 16.1364V30H127.606V16.3636C127.606 14.6496 127.161 13.3144 126.271 12.358C125.38 11.392 124.159 10.9091 122.606 10.9091C121.536 10.9091 120.579 11.1411 119.737 11.6051C118.903 12.0691 118.245 12.7462 117.762 13.6364C117.279 14.5265 117.038 15.6061 117.038 16.875ZM145.322 30.4545C143.504 30.4545 141.899 29.9953 140.507 29.0767C139.115 28.1487 138.026 26.8419 137.24 25.1562C136.454 23.4612 136.061 21.4583 136.061 19.1477C136.061 16.8561 136.454 14.8674 137.24 13.1818C138.026 11.4962 139.12 10.1941 140.521 9.27557C141.923 8.35701 143.542 7.89773 145.379 7.89773C146.8 7.89773 147.922 8.13447 148.746 8.60795C149.579 9.07197 150.214 9.60227 150.649 10.1989C151.094 10.786 151.44 11.2689 151.686 11.6477H151.97V0.90909H155.322V30H152.084V26.6477H151.686C151.44 27.0455 151.089 27.5473 150.635 28.1534C150.18 28.75 149.532 29.285 148.689 29.7585C147.846 30.2225 146.724 30.4545 145.322 30.4545ZM145.777 27.4432C147.122 27.4432 148.258 27.0928 149.186 26.392C150.114 25.6818 150.82 24.7017 151.303 23.4517C151.786 22.1922 152.027 20.7386 152.027 19.0909C152.027 17.4621 151.79 16.0369 151.317 14.8153C150.843 13.5843 150.143 12.6278 149.214 11.946C148.286 11.2547 147.141 10.9091 145.777 10.9091C144.357 10.9091 143.173 11.2737 142.226 12.0028C141.288 12.7225 140.583 13.7027 140.109 14.9432C139.645 16.1742 139.413 17.5568 139.413 19.0909C139.413 20.6439 139.65 22.0549 140.124 23.3239C140.607 24.5833 141.317 25.5871 142.254 26.3352C143.201 27.0739 144.375 27.4432 145.777 27.4432ZM161.928 30V8.18182H165.28V30H161.928ZM163.632 4.54545C162.979 4.54545 162.415 4.32292 161.942 3.87784C161.478 3.43277 161.246 2.89773 161.246 2.27273C161.246 1.64773 161.478 1.11269 161.942 0.667613C162.415 0.222538 162.979 0 163.632 0C164.286 0 164.844 0.222538 165.308 0.667613C165.782 1.11269 166.018 1.64773 166.018 2.27273C166.018 2.89773 165.782 3.43277 165.308 3.87784C164.844 4.32292 164.286 4.54545 163.632 4.54545ZM174.545 22.0455L174.488 17.8977H175.17L184.715 8.18182H188.863L178.692 18.4659H178.408L174.545 22.0455ZM171.42 30V0.90909H174.772V30H171.42ZM185.283 30L176.761 19.2045L179.147 16.875L189.545 30H185.283ZM201.143 30.4545C199.097 30.4545 197.336 29.9716 195.859 29.0057C194.381 28.0398 193.245 26.7093 192.45 25.0142C191.654 23.3191 191.256 21.3826 191.256 19.2045C191.256 16.9886 191.664 15.0331 192.478 13.3381C193.302 11.6335 194.448 10.303 195.915 9.34659C197.393 8.38068 199.116 7.89773 201.086 7.89773C202.62 7.89773 204.003 8.18182 205.234 8.75C206.465 9.31818 207.473 10.1136 208.259 11.1364C209.045 12.1591 209.533 13.3523 209.722 14.7159H206.37C206.114 13.7216 205.546 12.8409 204.665 12.0739C203.794 11.2973 202.62 10.9091 201.143 10.9091C199.836 10.9091 198.69 11.25 197.705 11.9318C196.73 12.6042 195.968 13.5559 195.418 14.7869C194.879 16.0085 194.609 17.4432 194.609 19.0909C194.609 20.7765 194.874 22.2443 195.404 23.4943C195.944 24.7443 196.701 25.715 197.677 26.4062C198.662 27.0975 199.817 27.4432 201.143 27.4432C202.014 27.4432 202.805 27.2917 203.515 26.9886C204.225 26.6856 204.826 26.25 205.319 25.6818C205.811 25.1136 206.162 24.4318 206.37 23.6364H209.722C209.533 24.9242 209.064 26.0843 208.316 27.1165C207.577 28.1392 206.597 28.9536 205.376 29.5597C204.164 30.1562 202.753 30.4545 201.143 30.4545ZM241.327 13.0682L238.316 13.9205C238.127 13.4186 237.847 12.9309 237.478 12.4574C237.118 11.9744 236.626 11.5767 236.001 11.2642C235.376 10.9517 234.576 10.7955 233.6 10.7955C232.265 10.7955 231.152 11.1032 230.262 11.7188C229.381 12.3248 228.941 13.0966 228.941 14.0341C228.941 14.8674 229.244 15.5256 229.85 16.0085C230.456 16.4915 231.403 16.8939 232.691 17.2159L235.93 18.0114C237.88 18.4848 239.334 19.2093 240.29 20.1847C241.247 21.1506 241.725 22.3958 241.725 23.9205C241.725 25.1705 241.365 26.2879 240.646 27.2727C239.935 28.2576 238.941 29.0341 237.663 29.6023C236.384 30.1705 234.897 30.4545 233.202 30.4545C230.977 30.4545 229.135 29.9716 227.677 29.0057C226.219 28.0398 225.295 26.6288 224.907 24.7727L228.089 23.9773C228.392 25.1515 228.965 26.0322 229.808 26.6193C230.66 27.2064 231.772 27.5 233.146 27.5C234.708 27.5 235.949 27.1686 236.867 26.5057C237.795 25.8333 238.259 25.0284 238.259 24.0909C238.259 23.3333 237.994 22.6989 237.464 22.1875C236.933 21.6667 236.119 21.2784 235.021 21.0227L231.384 20.1705C229.386 19.697 227.918 18.9631 226.981 17.9688C226.053 16.965 225.589 15.7102 225.589 14.2045C225.589 12.9735 225.934 11.8845 226.626 10.9375C227.326 9.99053 228.278 9.24716 229.481 8.70739C230.693 8.16761 232.066 7.89773 233.6 7.89773C235.759 7.89773 237.454 8.37121 238.685 9.31818C239.926 10.2652 240.807 11.5152 241.327 13.0682ZM255.01 30.4545C253.192 30.4545 251.587 29.9953 250.195 29.0767C248.803 28.1487 247.714 26.8419 246.928 25.1562C246.142 23.4612 245.749 21.4583 245.749 19.1477C245.749 16.8561 246.142 14.8674 246.928 13.1818C247.714 11.4962 248.807 10.1941 250.209 9.27557C251.61 8.35701 253.23 7.89773 255.067 7.89773C256.487 7.89773 257.609 8.13447 258.433 8.60795C259.267 9.07197 259.901 9.60227 260.337 10.1989C260.782 10.786 261.127 11.2689 261.374 11.6477H261.658V0.90909H265.01V30H261.771V26.6477H261.374C261.127 27.0455 260.777 27.5473 260.322 28.1534C259.868 28.75 259.219 29.285 258.376 29.7585C257.534 30.2225 256.411 30.4545 255.01 30.4545ZM255.464 27.4432C256.809 27.4432 257.946 27.0928 258.874 26.392C259.802 25.6818 260.507 24.7017 260.99 23.4517C261.473 22.1922 261.714 20.7386 261.714 19.0909C261.714 17.4621 261.478 16.0369 261.004 14.8153C260.531 13.5843 259.83 12.6278 258.902 11.946C257.974 11.2547 256.828 10.9091 255.464 10.9091C254.044 10.9091 252.86 11.2737 251.913 12.0028C250.976 12.7225 250.27 13.7027 249.797 14.9432C249.333 16.1742 249.101 17.5568 249.101 19.0909C249.101 20.6439 249.338 22.0549 249.811 23.3239C250.294 24.5833 251.004 25.5871 251.942 26.3352C252.889 27.0739 254.063 27.4432 255.464 27.4432ZM280.479 30.4545C278.433 30.4545 276.672 29.9716 275.195 29.0057C273.717 28.0398 272.581 26.7093 271.786 25.0142C270.99 23.3191 270.592 21.3826 270.592 19.2045C270.592 16.9886 271 15.0331 271.814 13.3381C272.638 11.6335 273.784 10.303 275.251 9.34659C276.729 8.38068 278.452 7.89773 280.422 7.89773C281.956 7.89773 283.339 8.18182 284.57 8.75C285.801 9.31818 286.809 10.1136 287.595 11.1364C288.381 12.1591 288.869 13.3523 289.058 14.7159H285.706C285.45 13.7216 284.882 12.8409 284.001 12.0739C283.13 11.2973 281.956 10.9091 280.479 10.9091C279.172 10.9091 278.026 11.25 277.041 11.9318C276.066 12.6042 275.304 13.5559 274.754 14.7869C274.214 16.0085 273.945 17.4432 273.945 19.0909C273.945 20.7765 274.21 22.2443 274.74 23.4943C275.28 24.7443 276.037 25.715 277.013 26.4062C277.998 27.0975 279.153 27.4432 280.479 27.4432C281.35 27.4432 282.141 27.2917 282.851 26.9886C283.561 26.6856 284.162 26.25 284.655 25.6818C285.147 25.1136 285.498 24.4318 285.706 23.6364H289.058C288.869 24.9242 288.4 26.0843 287.652 27.1165C286.913 28.1392 285.933 28.9536 284.712 29.5597C283.5 30.1562 282.089 30.4545 280.479 30.4545ZM302.822 30.4545C300.777 30.4545 299.016 29.9716 297.538 29.0057C296.061 28.0398 294.925 26.7093 294.129 25.0142C293.334 23.3191 292.936 21.3826 292.936 19.2045C292.936 16.9886 293.343 15.0331 294.158 13.3381C294.982 11.6335 296.127 10.303 297.595 9.34659C299.072 8.38068 300.796 7.89773 302.766 7.89773C304.3 7.89773 305.682 8.18182 306.913 8.75C308.144 9.31818 309.153 10.1136 309.939 11.1364C310.725 12.1591 311.213 13.3523 311.402 14.7159H308.05C307.794 13.7216 307.226 12.8409 306.345 12.0739C305.474 11.2973 304.3 10.9091 302.822 10.9091C301.516 10.9091 300.37 11.25 299.385 11.9318C298.41 12.6042 297.647 13.5559 297.098 14.7869C296.558 16.0085 296.288 17.4432 296.288 19.0909C296.288 20.7765 296.554 22.2443 297.084 23.4943C297.624 24.7443 298.381 25.715 299.357 26.4062C300.341 27.0975 301.497 27.4432 302.822 27.4432C303.694 27.4432 304.484 27.2917 305.195 26.9886C305.905 26.6856 306.506 26.25 306.999 25.6818C307.491 25.1136 307.841 24.4318 308.05 23.6364H311.402C311.213 24.9242 310.744 26.0843 309.996 27.1165C309.257 28.1392 308.277 28.9536 307.055 29.5597C305.843 30.1562 304.432 30.4545 302.822 30.4545ZM16.5227 61.0682L13.5114 61.9205C13.322 61.4186 13.0426 60.9309 12.6733 60.4574C12.3134 59.9744 11.821 59.5767 11.196 59.2642C10.571 58.9517 9.77083 58.7955 8.79545 58.7955C7.46023 58.7955 6.34754 59.1032 5.45739 59.7188C4.5767 60.3248 4.13636 61.0966 4.13636 62.0341C4.13636 62.8674 4.43939 63.5256 5.04545 64.0085C5.65152 64.4915 6.59848 64.8939 7.88636 65.2159L11.125 66.0114C13.0758 66.4848 14.5294 67.2093 15.4858 68.1847C16.4422 69.1506 16.9205 70.3958 16.9205 71.9205C16.9205 73.1705 16.5606 74.2879 15.8409 75.2727C15.1307 76.2576 14.1364 77.0341 12.858 77.6023C11.5795 78.1705 10.0928 78.4545 8.39773 78.4545C6.17235 78.4545 4.33049 77.9716 2.87216 77.0057C1.41383 76.0398 0.49053 74.6288 0.102273 72.7727L3.28409 71.9773C3.58712 73.1515 4.16004 74.0322 5.00284 74.6193C5.85511 75.2064 6.9678 75.5 8.34091 75.5C9.90341 75.5 11.1439 75.1686 12.0625 74.5057C12.9905 73.8333 13.4545 73.0284 13.4545 72.0909C13.4545 71.3333 13.1894 70.6989 12.6591 70.1875C12.1288 69.6667 11.3144 69.2784 10.2159 69.0227L6.57955 68.1705C4.58144 67.697 3.11364 66.9631 2.17614 65.9688C1.24811 64.965 0.784091 63.7102 0.784091 62.2045C0.784091 60.9735 1.12973 59.8845 1.82102 58.9375C2.52178 57.9905 3.47349 57.2472 4.67614 56.7074C5.88826 56.1676 7.26136 55.8977 8.79545 55.8977C10.9545 55.8977 12.6496 56.3712 13.8807 57.3182C15.1212 58.2652 16.0019 59.5152 16.5227 61.0682ZM30.8303 78.4545C28.7848 78.4545 27.0234 77.9716 25.5462 77.0057C24.0689 76.0398 22.9325 74.7093 22.1371 73.0142C21.3416 71.3191 20.9439 69.3826 20.9439 67.2045C20.9439 64.9886 21.3511 63.0331 22.1655 61.3381C22.9893 59.6335 24.1352 58.303 25.603 57.3466C27.0803 56.3807 28.8037 55.8977 30.7734 55.8977C32.3075 55.8977 33.6901 56.1818 34.9212 56.75C36.1522 57.3182 37.1607 58.1136 37.9467 59.1364C38.7327 60.1591 39.2204 61.3523 39.4098 62.7159H36.0575C35.8018 61.7216 35.2337 60.8409 34.353 60.0739C33.4818 59.2973 32.3075 58.9091 30.8303 58.9091C29.5234 58.9091 28.3776 59.25 27.3928 59.9318C26.4174 60.6042 25.6551 61.5559 25.1058 62.7869C24.5661 64.0085 24.2962 65.4432 24.2962 67.0909C24.2962 68.7765 24.5613 70.2443 25.0916 71.4943C25.6314 72.7443 26.389 73.715 27.3643 74.4062C28.3492 75.0975 29.5045 75.4432 30.8303 75.4432C31.7015 75.4432 32.4922 75.2917 33.2024 74.9886C33.9126 74.6856 34.514 74.25 35.0064 73.6818C35.4988 73.1136 35.8492 72.4318 36.0575 71.6364H39.4098C39.2204 72.9242 38.7517 74.0843 38.0036 75.1165C37.2649 76.1392 36.2848 76.9536 35.0632 77.5597C33.8511 78.1562 32.4401 78.4545 30.8303 78.4545Z" fill="#FF0000"/>
</svg>
