<svg width="1264" height="611" viewBox="0 0 1264 611" fill="none" xmlns="http://www.w3.org/2000/svg">
<g id="line-animation">
<rect width="1264" height="611" fill="white"/>
<g id="Group">
<path id="rightear" d="M775.136 152.865C775.136 162.025 772.98 171.302 768.421 179.926C767.189 182.257 765.821 184.467 764.328 186.56C755.989 175.926 746.394 166.323 735.763 157.969L736.435 157.126C736.977 156.324 737.462 155.48 737.896 154.59C739.338 151.634 740.019 148.497 740.019 145.406C740.019 137.574 735.651 130.022 728.166 126.377C725.207 124.936 722.071 124.256 718.973 124.256C711.133 124.256 703.568 128.624 699.919 136.101L699.797 136.372C688.817 131.528 677.22 127.822 665.152 125.412C675.601 105.688 695.961 94.3929 716.947 94.3929C726.117 94.3929 735.404 96.5513 744.037 101.101C763.81 111.529 775.136 131.882 775.136 152.865V152.865Z" fill="#333333"/>
<path id="rightside" d="M665.152 125.412C677.22 127.822 688.817 131.528 699.797 136.372C712.724 142.073 724.792 149.355 735.763 157.969C746.394 166.323 755.989 175.926 764.328 186.56C786.677 215.057 800 250.957 800 289.966C800 382.651 724.783 457.788 632 457.788V122.144C643.349 122.144 654.437 123.268 665.152 125.412ZM732.8 206.055C732.8 187.52 717.755 172.491 699.2 172.491C680.645 172.491 665.6 187.52 665.6 206.055C665.6 224.59 680.645 239.62 699.2 239.62C717.755 239.62 732.8 224.59 732.8 206.055Z" fill="#CCCCCC"/>
<path id="rightinnerear" d="M740.019 145.406C740.019 148.497 739.338 151.634 737.896 154.59C737.462 155.48 736.977 156.324 736.435 157.126L735.763 157.969C724.792 149.355 712.724 142.073 699.797 136.372L699.919 136.101C703.568 128.624 711.133 124.256 718.973 124.256C722.071 124.256 725.207 124.937 728.166 126.377C735.651 130.022 740.019 137.574 740.019 145.406V145.406Z" fill="#CCCCCC"/>
<path id="righteye" d="M699.2 172.491C717.755 172.491 732.8 187.52 732.8 206.055C732.8 224.59 717.755 239.62 699.2 239.62C680.645 239.62 665.6 224.59 665.6 206.055C665.6 187.52 680.645 172.491 699.2 172.491Z" fill="#333333"/>
<path id="rightinnereye" d="M711.8 230.995C716.31 230.995 719.967 227.343 719.967 222.837C719.967 218.332 716.31 214.679 711.8 214.679C707.29 214.679 703.633 218.332 703.633 222.837C703.633 227.343 707.29 230.995 711.8 230.995Z" fill="#CCCCCC"/>
<path id="leftside" d="M632 340.313V457.788C539.217 457.788 464 382.651 464 289.966C464 250.957 477.328 215.052 499.672 186.555C508.025 175.908 517.634 166.295 528.279 157.937C539.25 149.327 551.318 142.05 564.24 136.358C575.221 131.514 586.817 127.813 598.881 125.407C609.586 123.268 620.665 122.144 632 122.144V340.313ZM598.4 206.055C598.4 187.52 583.355 172.491 564.8 172.491C546.245 172.491 531.2 187.52 531.2 206.055C531.2 224.59 546.245 239.62 564.8 239.62C583.355 239.62 598.4 224.59 598.4 206.055Z" fill="#333333"/>
<path id="lefteye" d="M564.8 172.491C583.355 172.491 598.4 187.52 598.4 206.055C598.4 224.59 583.355 239.62 564.8 239.62C546.245 239.62 531.2 224.59 531.2 206.055C531.2 187.52 546.245 172.491 564.8 172.491Z" fill="#CCCCCC"/>
<path id="leftinnereye" d="M577.395 214.679C581.903 214.679 585.567 218.329 585.567 222.837C585.567 227.345 581.908 230.995 577.395 230.995C572.883 230.995 569.233 227.345 569.233 222.837C569.233 218.329 572.887 214.679 577.395 214.679Z" fill="#F2F2F2"/>
<path id="leftear" d="M598.881 125.407C586.817 127.813 575.221 131.514 564.24 136.358L564.133 136.115C560.483 128.638 552.919 124.27 545.079 124.27C541.985 124.27 538.844 124.95 535.89 126.391C528.405 130.036 524.032 137.593 524.032 145.42C524.032 148.516 524.713 151.648 526.155 154.604C526.589 155.494 527.079 156.338 527.616 157.14L528.279 157.937C517.634 166.295 508.025 175.908 499.672 186.555C498.188 184.462 496.83 182.243 495.607 179.908C491.132 171.349 489.013 162.156 489.013 153.079C489.013 132.008 500.442 111.571 520.345 101.194C528.918 96.7238 538.121 94.6073 547.207 94.6073C568.127 94.6073 588.409 105.833 598.881 125.407V125.407Z" fill="#CCCCCC"/>
<path id="leftinnerear" d="M564.133 136.115L564.24 136.358C551.318 142.05 539.25 149.327 528.279 157.937L527.616 157.14C527.079 156.338 526.589 155.494 526.155 154.604C524.713 151.648 524.032 148.515 524.032 145.42C524.032 137.593 528.405 130.036 535.89 126.391C538.844 124.95 541.985 124.27 545.079 124.27C552.919 124.27 560.483 128.638 564.133 136.115V136.115Z" fill="#333333"/>
</g>
<g id="Group_2">
<path id="topleft" d="M632 340.313L531.2 306.748" stroke="#CCCCCC" stroke-width="5" stroke-miterlimit="10" stroke-linecap="round"/>
<path id="bottomright" d="M732.8 373.877L632 340.313" stroke="#333333" stroke-width="5" stroke-miterlimit="10" stroke-linecap="round"/>
<path id="bottomleft" d="M632 340.313L531.2 373.877" stroke="#CCCCCC" stroke-width="5" stroke-miterlimit="10" stroke-linecap="round"/>
<path id="topright" d="M732.8 306.748L632 340.313" stroke="#333333" stroke-width="5" stroke-miterlimit="10" stroke-linecap="round"/>
</g>
</g>
</svg>
