<svg width="1264" height="611" viewBox="0 0 1264 611" fill="none" xmlns="http://www.w3.org/2000/svg">
<g id="pattern-animation">
<rect width="1264" height="611" fill="white"/>
<path id="Vector" d="M625.227 372.782L666.985 331.024L775.527 439.565L733.768 481.324L625.227 372.782Z" stroke="black" stroke-width="2"/>
<path id="Vector_2" d="M758.805 506.348L800.565 464.588L896.977 561H813.458L758.805 506.348Z" stroke="black" stroke-width="2"/>
<path id="Vector_3" d="M491.671 372.784L600.212 264.243L641.97 306.002L533.429 414.543L491.671 372.784Z" stroke="black" stroke-width="2"/>
<path id="Vector_4" d="M558.458 172.431L600.216 130.672L708.757 239.214L666.999 280.972L558.458 172.431Z" stroke="black" stroke-width="2"/>
<path id="Vector_5" d="M825.588 172.435L922 76.0232V159.542L867.348 214.195L825.588 172.435Z" stroke="black" stroke-width="2"/>
<path id="Vector_6" d="M520.542 561H437.023L600.217 397.805L641.977 439.565L520.542 561Z" stroke="black" stroke-width="2"/>
<path id="Vector_7" d="M520.542 51L575.195 105.652L533.435 147.412L437.023 51H520.542Z" stroke="black" stroke-width="2"/>
<path id="Vector_8" d="M896.977 51L733.783 214.195L692.023 172.435L813.458 51H896.977Z" stroke="black" stroke-width="2"/>
<path id="Vector_9" d="M763.412 51L667 147.412L570.588 51H763.412Z" stroke="black" stroke-width="2"/>
<path id="Vector_10" d="M763.412 561H570.588L667 464.588L763.412 561Z" stroke="black" stroke-width="2"/>
<path id="Vector_11" d="M692.018 305.993L800.559 197.452L842.318 239.21L733.777 347.752L692.018 305.993Z" stroke="black" stroke-width="2"/>
<path id="Vector_12" d="M922 209.588V402.412L825.588 306L922 209.588Z" stroke="black" stroke-width="2"/>
<path id="Vector_13" d="M922 535.977L758.805 372.783L800.565 331.023L922 452.458V535.977Z" stroke="black" stroke-width="2"/>
<path id="Vector_14" d="M533.435 280.977L412 159.542V76.0232L575.195 239.217L533.435 280.977Z" stroke="black" stroke-width="2"/>
<path id="Vector_15" d="M412 535.977V452.458L466.652 397.805L508.412 439.565L412 535.977Z" stroke="black" stroke-width="2"/>
<path id="Vector_16" d="M412 402.412V209.588L508.412 306L412 402.412Z" stroke="black" stroke-width="2"/>
</g>
</svg>
