<svg width="1264" height="611" viewBox="0 0 1264 611" fill="none" xmlns="http://www.w3.org/2000/svg">
<g id="pattern-animation">
<rect width="1264" height="611" fill="white"/>
<g id="Frame" clip-path="url(#clip0_111_28)">
<g id="Group">
<path id="Vector" d="M353.808 248.518C351.209 238.848 343.646 231.294 333.952 228.684C316.462 224 246.255 224 246.255 224C246.255 224 176.047 224 158.544 228.684C148.864 231.28 141.301 238.835 138.703 248.518C134 266.004 134 302.5 134 302.5C134 302.5 134 338.996 138.689 356.482C141.288 366.152 148.85 373.706 158.53 376.302C176.034 380.986 246.241 380.986 246.241 380.986C246.241 380.986 316.449 380.986 333.952 376.302C343.632 373.706 351.195 366.152 353.808 356.482C358.496 338.996 358.496 302.5 358.496 302.5C358.496 302.5 358.483 266.004 353.808 248.518V248.518Z" fill="#FF0000"/>
<path id="Vector_2" d="M223.787 336.139L282.115 302.5L223.787 268.861V336.139V336.139Z" fill="white"/>
</g>
<g id="youtube-paths">
<path id="Vector_3" d="M405.906 326.084L380.702 235.126H402.689L411.516 276.361C413.771 286.525 415.421 295.179 416.494 302.349H417.14C417.882 297.212 419.546 288.613 422.117 276.512L431.261 235.14H453.261L427.741 326.071V369.695H405.892V326.071H405.906V326.084ZM459.875 366.838C455.434 363.844 452.271 359.188 450.387 352.883C448.531 346.564 447.582 338.186 447.582 327.705V313.434C447.582 302.857 448.655 294.341 450.8 287.94C452.945 281.539 456.286 276.842 460.837 273.916C465.389 270.976 471.356 269.493 478.74 269.493C486.124 269.493 491.844 270.99 496.244 273.985C500.63 276.979 503.847 281.663 505.869 288.009C507.917 294.382 508.921 302.857 508.921 313.434V327.705C508.921 338.199 507.917 346.606 505.937 352.965C503.971 359.325 500.754 363.981 496.312 366.921C491.871 369.86 485.849 371.33 478.259 371.33C470.421 371.344 464.302 369.833 459.875 366.852V366.838ZM484.749 351.441C485.972 348.226 486.605 343.007 486.605 335.727V305.096C486.605 298.05 485.986 292.871 484.749 289.63C483.511 286.36 481.352 284.726 478.245 284.726C475.137 284.726 473.13 286.347 471.906 289.616C470.669 292.885 470.064 298.036 470.064 305.082V335.713C470.064 342.993 470.655 348.226 471.837 351.427C473.02 354.641 475.151 356.248 478.245 356.248C481.339 356.248 483.511 354.641 484.749 351.427V351.441ZM580.462 369.737H563.137L561.226 357.704H560.745C556.029 366.783 548.975 371.33 539.542 371.33C533.025 371.33 528.199 369.187 525.091 364.929C521.984 360.644 520.43 353.968 520.43 344.875V271.388H542.595V343.556C542.595 347.952 543.076 351.07 544.039 352.938C545.001 354.792 546.61 355.74 548.851 355.74C550.776 355.74 552.619 355.149 554.392 353.968C556.166 352.787 557.459 351.303 558.325 349.49V271.375H580.462V369.709V369.737Z" fill="#282828"/>
<path id="Vector_4" d="M640.66 252.955H618.674V369.723H596.99V252.955H575.004V235.153H640.66V252.955Z" fill="#282828"/>
<path id="Vector_5" d="M694.106 369.723H676.767L674.842 357.69H674.375C669.659 366.77 662.591 371.316 653.172 371.316C646.655 371.316 641.829 369.173 638.721 364.915C635.614 360.63 634.074 353.954 634.074 344.861V271.388H656.239V343.556C656.239 347.952 656.706 351.07 657.682 352.938C658.645 354.792 660.254 355.74 662.509 355.74C664.42 355.74 666.276 355.149 668.05 353.968C669.824 352.787 671.116 351.303 671.982 349.49V271.375H694.12V369.709L694.106 369.723ZM767.435 287.116C766.087 280.921 763.929 276.429 760.931 273.641C757.947 270.853 753.822 269.465 748.57 269.465C744.5 269.465 740.691 270.606 737.171 272.913C733.637 275.221 730.901 278.229 728.976 281.979H728.811V230.167H707.457V369.709H725.759L728.014 360.396H728.481C730.214 363.72 732.771 366.316 736.195 368.267C739.619 370.19 743.427 371.151 747.594 371.151C755.087 371.151 760.601 367.704 764.135 360.808C767.669 353.899 769.442 343.144 769.442 328.488V312.925C769.442 301.937 768.755 293.311 767.435 287.116V287.116ZM747.126 327.224C747.126 334.394 746.837 339.999 746.232 344.064C745.641 348.13 744.665 351.029 743.262 352.718C741.901 354.421 739.825 355.369 737.639 355.287C735.81 355.287 734.132 354.861 732.565 353.995C730.97 353.103 729.664 351.77 728.797 350.163V294.341C729.54 291.676 730.846 289.492 732.661 287.775C734.462 286.058 736.47 285.207 738.587 285.207C740.664 285.124 742.644 286.127 743.799 287.858C745.036 289.63 745.889 292.583 746.37 296.758C746.851 300.934 747.099 306.868 747.099 314.56V327.238H747.112L747.126 327.224ZM800.889 332.897C800.889 339.202 801.067 343.941 801.439 347.1C801.81 350.259 802.58 352.553 803.776 354.009C804.959 355.451 806.76 356.166 809.221 356.166C812.535 356.166 814.817 354.875 816.041 352.306C817.279 349.737 817.952 345.452 818.062 339.477L837.161 340.603C837.271 341.455 837.34 342.636 837.34 344.133C837.34 353.213 834.837 360.012 829.874 364.49C824.896 368.981 817.856 371.234 808.767 371.234C797.85 371.234 790.191 367.814 785.819 360.959C781.419 354.105 779.232 343.529 779.232 329.202V312.033C779.232 297.28 781.515 286.498 786.052 279.712C790.604 272.913 798.386 269.52 809.414 269.52C817.004 269.52 822.847 270.908 826.917 273.696C830.987 276.484 833.847 280.797 835.511 286.69C837.175 292.583 838 300.701 838 311.071V327.911H800.889V332.897V332.897ZM803.694 286.553C802.566 287.94 801.837 290.206 801.439 293.366C801.067 296.525 800.889 301.305 800.889 307.733V314.78H817.086V307.733C817.086 301.415 816.866 296.635 816.44 293.366C816.014 290.097 815.244 287.803 814.116 286.457C812.989 285.124 811.242 284.451 808.905 284.451C806.554 284.465 804.807 285.179 803.694 286.553V286.553Z" fill="#282828"/>
</g>
</g>
<path id="Vector 24" d="M79 302H956" stroke="white" stroke-width="230"/>
<path id="Vector_6" d="M568.62 369.85H549.66V358.87C542.47 367.11 536.38 371.27 529.73 371.27C523.9 371.27 519.85 368.52 517.83 363.55C516.6 360.53 515.73 355.81 515.73 348.89V269.06H534.69V350.89C535.13 353.69 536.33 354.71 538.73 354.71C542.36 354.71 545.64 351.56 549.66 345.89V269.06H568.62V369.85V369.85ZM482.8 339.91C483.8 349.89 480.7 354.84 474.81 354.84C468.92 354.84 465.83 349.89 466.83 339.91V299.99C465.83 290.01 468.92 285.33 474.81 285.33C480.7 285.33 483.8 290.01 482.81 299.99V339.91H482.8ZM501.76 301.99C501.76 291.22 499.6 283.13 495.77 278.04C490.72 271.14 482.8 268.32 474.81 268.32C465.78 268.32 458.9 271.14 453.85 278.04C449.96 283.13 447.88 291.31 447.88 302.08L447.86 337.92C447.86 348.63 449.71 356.03 453.6 361.07C458.65 367.94 466.83 371.58 474.81 371.58C482.79 371.58 491.12 367.94 496.17 361.07C499.99 356.03 501.76 348.63 501.76 337.92V301.99V301.99ZM426.91 314.96V369.85H406.95V314.96C406.95 314.96 386.27 247.67 382 235.13H402.96L416.97 287.69L430.91 235.12H451.87L426.92 314.95L426.91 314.96Z" fill="black"/>
<g id="Group_2">
<path id="Vector_7" d="M821.1 296.96C821.1 287.63 823.66 285.09 829.69 285.09C835.72 285.09 838.06 287.87 838.06 297.09V307.98L821.1 308V296.96V296.96ZM857.06 322.95V302.55C857.06 291.89 854.96 284.09 851.18 279.05C846.12 272.23 838.93 268.61 829.86 268.61C820.79 268.61 813.44 272.22 808.22 279.05C804.38 284.09 802.14 292.33 802.14 302.99V337.92C802.14 348.52 804.6 355.93 808.44 360.92C813.67 367.73 820.86 371.14 830.31 371.14C839.76 371.14 847.16 367.57 852.16 360.33C854.36 357.13 855.78 353.51 856.39 349.51C856.55 347.7 857.03 343.58 857.03 337.76V334.93H838.07C838.07 342.18 838.11 346.49 837.94 347.47C836.91 352.3 834.32 354.72 829.87 354.72C823.67 354.72 821.04 350.08 821.11 340.88V322.96H857.07L857.06 322.95ZM771.2 340.91C771.2 350.89 768.85 354.72 763.64 354.72C760.67 354.72 757.24 353.19 754.22 350.17L754.24 289.65C757.26 286.67 760.67 285.1 763.64 285.1C768.85 285.1 771.2 288.03 771.2 298.01V340.92V340.91ZM773.3 268.46C766.65 268.46 760.05 272.55 754.21 279.73L754.23 236.13H736.27V369.85H754.23L754.26 359.8C760.3 367.27 766.88 371.13 773.3 371.13C780.49 371.13 785.75 367.28 788.16 359.86C789.36 355.63 790.15 349.13 790.15 339.9V299.98C790.15 290.53 788.94 284.07 787.73 280.06C785.32 272.59 780.48 268.44 773.29 268.44M721.29 369.83H702.33V358.85C695.14 367.09 689.05 371.25 682.4 371.25C676.57 371.25 672.52 368.5 670.5 363.53C669.27 360.51 668.39 355.79 668.39 348.87V270.06H687.35V350.89C687.79 353.69 688.98 354.71 691.39 354.71C695.02 354.71 698.3 351.56 702.32 345.89V270.06H721.28V369.85L721.29 369.83Z" fill="black"/>
<path id="Vector_8" d="M649.45 369.85H629.49V255.08H608.53V236.14L671.4 236.12V255.08H649.44V369.85H649.45Z" fill="black"/>
</g>
<mask id="mask0_111_28" style="mask-type:alpha" maskUnits="userSpaceOnUse" x="583" y="200" width="299" height="210">
<path id="Vector_9" d="M879.02 246.01C879.02 246.01 876.11 225.57 867.17 216.56C855.84 204.75 843.13 204.69 837.31 203.99C795.61 200.99 733.06 200.99 733.06 200.99H732.93C732.93 200.99 670.38 200.99 628.67 203.99C622.84 204.68 610.15 204.74 598.81 216.56C589.88 225.56 586.97 246.01 586.97 246.01C586.97 246.01 583.99 270.01 583.99 294.02V316.53C583.99 340.54 586.97 364.54 586.97 364.54C586.97 364.54 589.88 384.98 598.81 393.99C610.15 405.81 625.04 405.43 631.67 406.67C655.51 408.95 732.99 409.65 732.99 409.65C732.99 409.65 795.61 409.56 837.31 406.56C843.13 405.87 855.84 405.81 867.17 393.99C876.11 384.98 879.02 364.54 879.02 364.54C879.02 364.54 882 340.53 882 316.53V294.02C882 270.01 879.02 246.01 879.02 246.01Z" fill="#CD201F"/>
</mask>
<g mask="url(#mask0_111_28)">
<g id="Group 9">
<rect id="Rectangle 13" x="72" y="58" width="1121" height="443" fill="#FF0000"/>
<g id="Group 8">
<g id="Group_3">
<path id="Vector_10" d="M821.1 296.96C821.1 287.63 823.66 285.09 829.69 285.09C835.72 285.09 838.06 287.87 838.06 297.09V307.98L821.1 308V296.96V296.96ZM857.06 322.95V302.55C857.06 291.89 854.96 284.09 851.18 279.05C846.12 272.23 838.93 268.61 829.86 268.61C820.79 268.61 813.44 272.22 808.22 279.05C804.38 284.09 802.14 292.33 802.14 302.99V337.92C802.14 348.52 804.6 355.93 808.44 360.92C813.67 367.73 820.86 371.14 830.31 371.14C839.76 371.14 847.16 367.57 852.16 360.33C854.36 357.13 855.78 353.51 856.39 349.51C856.55 347.7 857.03 343.58 857.03 337.76V334.93H838.07C838.07 342.18 838.11 346.49 837.94 347.47C836.91 352.3 834.32 354.72 829.87 354.72C823.67 354.72 821.04 350.08 821.11 340.88V322.96H857.07L857.06 322.95ZM771.2 340.91C771.2 350.89 768.85 354.72 763.64 354.72C760.67 354.72 757.24 353.19 754.22 350.17L754.24 289.65C757.26 286.67 760.67 285.1 763.64 285.1C768.85 285.1 771.2 288.03 771.2 298.01V340.92V340.91ZM773.3 268.46C766.65 268.46 760.05 272.55 754.21 279.73L754.23 236.13H736.27V369.85H754.23L754.26 359.8C760.3 367.27 766.88 371.13 773.3 371.13C780.49 371.13 785.75 367.28 788.16 359.86C789.36 355.63 790.15 349.13 790.15 339.9V299.98C790.15 290.53 788.94 284.07 787.73 280.06C785.32 272.59 780.48 268.44 773.29 268.44M721.29 369.83H702.33V358.85C695.14 367.09 689.05 371.25 682.4 371.25C676.57 371.25 672.52 368.5 670.5 363.53C669.27 360.51 668.39 355.79 668.39 348.87V270.06H687.35V350.89C687.79 353.69 688.98 354.71 691.39 354.71C695.02 354.71 698.3 351.56 702.32 345.89V270.06H721.28V369.85L721.29 369.83Z" fill="white"/>
<path id="Vector_11" d="M649.45 369.85H629.49V255.08H608.53V236.14L671.4 236.12V255.08H649.44V369.85H649.45Z" fill="white"/>
</g>
</g>
</g>
</g>
<g id="Frame_2" clip-path="url(#clip1_111_28)">
<g id="Group 10">
<path id="Vector_12" d="M835.168 395.016C885.017 395.016 925.428 355.166 925.428 306.008C925.428 256.85 885.017 217 835.168 217C785.319 217 744.908 256.85 744.908 306.008C744.908 355.166 785.319 395.016 835.168 395.016Z" fill="#FF0000"/>
<path id="Vector_13" d="M835.168 359.413C864.997 359.413 889.178 335.503 889.178 306.008C889.178 276.513 864.997 252.603 835.168 252.603C805.339 252.603 781.158 276.513 781.158 306.008C781.158 335.503 805.339 359.413 835.168 359.413Z" fill="#FF0000" stroke="white" stroke-width="5.45" stroke-miterlimit="18.18"/>
<path id="Vector_14" d="M816.677 331.952L864.029 305.992L816.677 280.032V331.952V331.952Z" fill="white"/>
</g>
</g>
<g id="Group_4">
<path id="Vector_15" d="M581.614 288.207C577.17 309.712 574.207 334.938 572.742 346.05H571.261C569.78 334.922 566.817 309.712 562.39 288.941L551.288 237.021H518V377.198H538.722V261.496L540.935 272.624L562.39 377.198H583.111L603.833 272.624L605.314 261.496V376.464H626.036V237.021H591.999C592.731 237.021 581.646 288.19 581.646 288.19L581.614 288.207Z" fill="black" fill-opacity="0.5"/>
<path id="Vector_16" d="M682.243 355.693C680.029 359.397 676.318 362.366 671.89 362.366C667.463 362.366 665.232 358.662 665.232 349.754V274.843H641.548V350.488C641.548 369.024 648.206 377.933 662.27 377.933C671.89 377.933 679.28 373.478 685.205 363.835H685.938L688.152 376.448H706.643V274.843H682.226V355.693H682.243Z" fill="black" fill-opacity="0.5"/>
<path id="Vector_17" d="M751.798 314.901C744.391 309.712 739.215 306.008 739.215 297.85C739.215 291.91 742.177 288.957 748.086 288.957C754.744 288.957 756.958 293.412 756.958 308.978L776.931 308.244C778.412 283.768 770.273 273.391 748.07 273.391C728.097 273.391 717.728 282.284 717.728 300.085C717.728 316.402 725.867 323.826 739.182 334.204C751.016 343.096 757.674 347.551 757.674 354.975C757.674 360.164 753.979 363.868 748.054 363.868C740.647 363.868 736.952 357.194 737.701 346.066H717.728C714.766 367.571 723.653 379.434 746.589 379.434C767.31 379.434 777.663 370.541 777.663 351.989C779.144 334.938 770.257 328.248 751.765 314.901H751.798Z" fill="black" fill-opacity="0.5"/>
<path id="Vector_18" d="M791.743 274.843H814.679V376.448H791.743V274.843Z" fill="black" fill-opacity="0.5"/>
<path id="Vector_19" d="M803.577 234.051C794.706 234.051 790.995 237.021 790.995 248.149C790.995 259.277 795.438 262.246 803.577 262.246C812.449 262.246 816.16 259.277 816.16 248.149C816.16 237.771 812.465 234.051 803.577 234.051Z" fill="black" fill-opacity="0.5"/>
<path id="Vector_20" d="M890.891 340.11L870.17 339.376C870.17 357.178 867.956 363.117 861.298 363.117C854.641 363.117 853.16 356.443 853.16 335.672V315.651C853.16 294.88 854.641 288.957 861.298 288.957C867.956 288.957 869.437 294.896 869.437 314.167L890.159 312.682C891.64 297.099 889.426 285.987 883.501 280.048C879.058 275.594 871.667 273.375 862.047 273.375C839.112 273.375 829.492 285.237 829.492 319.355V333.453C829.492 368.306 837.631 379.434 861.315 379.434C870.935 379.434 878.325 377.215 882.769 372.76C888.694 366.087 890.908 355.709 890.908 340.127L890.891 340.11Z" fill="black" fill-opacity="0.5"/>
</g>
<g id="Frame_3" clip-path="url(#clip2_111_28)">
<path id="Vector_21" d="M394.952 394.016C444.631 394.016 484.904 354.39 484.904 305.508C484.904 256.626 444.631 217 394.952 217C345.273 217 305 256.626 305 305.508C305 354.39 345.273 394.016 394.952 394.016Z" fill="#FF0000"/>
<path id="Vector_22" d="M394.952 358.613C424.679 358.613 448.778 334.837 448.778 305.508C448.778 276.179 424.679 252.403 394.952 252.403C365.225 252.403 341.127 276.179 341.127 305.508C341.127 334.837 365.225 358.613 394.952 358.613Z" fill="#FF0000" stroke="white" stroke-width="5.45" stroke-miterlimit="18.18"/>
<g id="Group_5">
<path id="Vector_23" d="M376.524 331.306L423.714 305.492L376.524 279.678V331.306V331.306Z" fill="white"/>
<path id="Vector_24" d="M580.778 287.806C576.349 309.191 573.397 334.275 571.937 345.325H570.46C568.984 334.259 566.032 309.191 561.619 288.537L550.556 236.908H517.381V376.298H538.032V261.246L540.238 272.311L561.619 376.298H582.27L602.921 272.311L604.397 261.246V375.568H625.048V236.908H591.128C591.858 236.908 580.81 287.79 580.81 287.79L580.778 287.806Z" fill="black"/>
<path id="Vector_25" d="M681.063 354.914C678.857 358.597 675.158 361.55 670.746 361.55C666.334 361.55 664.111 357.867 664.111 349.008V274.518H640.508V349.738C640.508 368.17 647.143 377.029 661.159 377.029C670.746 377.029 678.111 372.599 684.016 363.01H684.746L686.952 375.552H705.38V274.518H681.047V354.914H681.063Z" fill="black"/>
<path id="Vector_26" d="M750.381 314.351C743 309.191 737.841 305.508 737.841 297.396C737.841 291.49 740.794 288.553 746.682 288.553C753.317 288.553 755.523 292.982 755.523 308.461L775.428 307.731C776.904 283.393 768.793 273.074 746.666 273.074C726.761 273.074 716.428 281.917 716.428 299.618C716.428 315.843 724.539 323.226 737.809 333.545C749.602 342.388 756.237 346.817 756.237 354.2C756.237 359.359 752.555 363.042 746.65 363.042C739.269 363.042 735.586 356.406 736.332 345.341H716.428C713.475 366.726 722.333 378.521 745.19 378.521C765.841 378.521 776.158 369.679 776.158 351.231C777.634 334.275 768.777 327.623 750.348 314.351H750.381Z" fill="black"/>
<path id="Vector_27" d="M790.19 274.518H813.048V375.552H790.19V274.518Z" fill="black"/>
<path id="Vector_28" d="M801.984 233.955C793.143 233.955 789.444 236.908 789.444 247.974C789.444 259.039 793.873 261.992 801.984 261.992C810.825 261.992 814.524 259.039 814.524 247.974C814.524 237.655 810.841 233.955 801.984 233.955Z" fill="black"/>
<path id="Vector_29" d="M889 339.419L868.349 338.689C868.349 356.39 866.143 362.296 859.508 362.296C852.873 362.296 851.397 355.66 851.397 335.005V315.097C851.397 294.443 852.873 288.553 859.508 288.553C866.143 288.553 867.619 294.459 867.619 313.621L888.27 312.144C889.746 296.649 887.54 285.6 881.635 279.694C877.206 275.264 869.841 273.058 860.254 273.058C837.397 273.058 827.81 284.854 827.81 318.78V332.799C827.81 367.456 835.921 378.521 859.524 378.521C869.111 378.521 876.476 376.315 880.905 371.885C886.81 365.249 889.016 354.93 889.016 339.435L889 339.419Z" fill="black"/>
</g>
</g>
</g>
<defs>
<clipPath id="clip0_111_28">
<rect width="704" height="157" fill="white" transform="translate(134 224)"/>
</clipPath>
<clipPath id="clip1_111_28">
<rect width="586" height="178" fill="white" transform="translate(339 217)"/>
</clipPath>
<clipPath id="clip2_111_28">
<rect width="584" height="177" fill="white" transform="translate(305 217)"/>
</clipPath>
</defs>
</svg>
