<svg width="1264" height="611" viewBox="0 0 1264 611" fill="none" xmlns="http://www.w3.org/2000/svg">
<g id="pattern-animation">
<rect width="1264" height="611" fill="white"/>
<g id="Frame" clip-path="url(#clip0_111_28)">
<g id="Group">
<path id="Vector" d="M353.808 248.518C351.209 238.848 343.646 231.294 333.952 228.684C316.462 224 246.255 224 246.255 224C246.255 224 176.047 224 158.544 228.684C148.864 231.28 141.301 238.835 138.703 248.518C134 266.004 134 302.5 134 302.5C134 302.5 134 338.996 138.689 356.482C141.288 366.152 148.85 373.706 158.53 376.302C176.034 380.986 246.241 380.986 246.241 380.986C246.241 380.986 316.449 380.986 333.952 376.302C343.632 373.706 351.195 366.152 353.808 356.482C358.496 338.996 358.496 302.5 358.496 302.5C358.496 302.5 358.483 266.004 353.808 248.518V248.518Z" fill="#FF0000"/>
<path id="Vector_2" d="M223.787 336.139L282.115 302.5L223.787 268.861V336.139V336.139Z" fill="white"/>
</g>
<g id="youtube-paths">
<path id="Vector_3" d="M405.906 326.084L380.702 235.126H402.689L411.516 276.361C413.771 286.525 415.421 295.179 416.494 302.349H417.14C417.882 297.212 419.546 288.613 422.117 276.512L431.261 235.14H453.261L427.741 326.071V369.695H405.892V326.071H405.906V326.084ZM459.875 366.838C455.434 363.844 452.271 359.188 450.387 352.883C448.531 346.564 447.582 338.186 447.582 327.705V313.434C447.582 302.857 448.655 294.341 450.8 287.94C452.945 281.539 456.286 276.842 460.837 273.916C465.389 270.976 471.356 269.493 478.74 269.493C486.124 269.493 491.844 270.99 496.244 273.985C500.63 276.979 503.847 281.663 505.869 288.009C507.917 294.382 508.921 302.857 508.921 313.434V327.705C508.921 338.199 507.917 346.606 505.937 352.965C503.971 359.325 500.754 363.981 496.312 366.921C491.871 369.86 485.849 371.33 478.259 371.33C470.421 371.344 464.302 369.833 459.875 366.852V366.838ZM484.749 351.441C485.972 348.226 486.605 343.007 486.605 335.727V305.096C486.605 298.05 485.986 292.871 484.749 289.63C483.511 286.36 481.352 284.726 478.245 284.726C475.137 284.726 473.13 286.347 471.906 289.616C470.669 292.885 470.064 298.036 470.064 305.082V335.713C470.064 342.993 470.655 348.226 471.837 351.427C473.02 354.641 475.151 356.248 478.245 356.248C481.339 356.248 483.511 354.641 484.749 351.427V351.441ZM580.462 369.737H563.137L561.226 357.704H560.745C556.029 366.783 548.975 371.33 539.542 371.33C533.025 371.33 528.199 369.187 525.091 364.929C521.984 360.644 520.43 353.968 520.43 344.875V271.388H542.595V343.556C542.595 347.952 543.076 351.07 544.039 352.938C545.001 354.792 546.61 355.74 548.851 355.74C550.776 355.74 552.619 355.149 554.392 353.968C556.166 352.787 557.459 351.303 558.325 349.49V271.375H580.462V369.709V369.737Z" fill="#282828"/>
<path id="Vector_4" d="M640.66 252.955H618.674V369.723H596.99V252.955H575.004V235.153H640.66V252.955Z" fill="#282828"/>
<path id="Vector_5" d="M694.106 369.723H676.767L674.842 357.69H674.375C669.659 366.77 662.591 371.316 653.172 371.316C646.655 371.316 641.829 369.173 638.721 364.915C635.614 360.63 634.074 353.954 634.074 344.861V271.388H656.239V343.556C656.239 347.952 656.706 351.07 657.682 352.938C658.645 354.792 660.254 355.74 662.509 355.74C664.42 355.74 666.276 355.149 668.05 353.968C669.824 352.787 671.116 351.303 671.982 349.49V271.375H694.12V369.709L694.106 369.723ZM767.435 287.116C766.087 280.921 763.929 276.429 760.931 273.641C757.947 270.853 753.822 269.465 748.57 269.465C744.5 269.465 740.691 270.606 737.171 272.913C733.637 275.221 730.901 278.229 728.976 281.979H728.811V230.167H707.457V369.709H725.759L728.014 360.396H728.481C730.214 363.72 732.771 366.316 736.195 368.267C739.619 370.19 743.427 371.151 747.594 371.151C755.087 371.151 760.601 367.704 764.135 360.808C767.669 353.899 769.442 343.144 769.442 328.488V312.925C769.442 301.937 768.755 293.311 767.435 287.116V287.116ZM747.126 327.224C747.126 334.394 746.837 339.999 746.232 344.064C745.641 348.13 744.665 351.029 743.262 352.718C741.901 354.421 739.825 355.369 737.639 355.287C735.81 355.287 734.132 354.861 732.565 353.995C730.97 353.103 729.664 351.77 728.797 350.163V294.341C729.54 291.676 730.846 289.492 732.661 287.775C734.462 286.058 736.47 285.207 738.587 285.207C740.664 285.124 742.644 286.127 743.799 287.858C745.036 289.63 745.889 292.583 746.37 296.758C746.851 300.934 747.099 306.868 747.099 314.56V327.238H747.112L747.126 327.224ZM800.889 332.897C800.889 339.202 801.067 343.941 801.439 347.1C801.81 350.259 802.58 352.553 803.776 354.009C804.959 355.451 806.76 356.166 809.221 356.166C812.535 356.166 814.817 354.875 816.041 352.306C817.279 349.737 817.952 345.452 818.062 339.477L837.161 340.603C837.271 341.455 837.34 342.636 837.34 344.133C837.34 353.213 834.837 360.012 829.874 364.49C824.896 368.981 817.856 371.234 808.767 371.234C797.85 371.234 790.191 367.814 785.819 360.959C781.419 354.105 779.232 343.529 779.232 329.202V312.033C779.232 297.28 781.515 286.498 786.052 279.712C790.604 272.913 798.386 269.52 809.414 269.52C817.004 269.52 822.847 270.908 826.917 273.696C830.987 276.484 833.847 280.797 835.511 286.69C837.175 292.583 838 300.701 838 311.071V327.911H800.889V332.897V332.897ZM803.694 286.553C802.566 287.94 801.837 290.206 801.439 293.366C801.067 296.525 800.889 301.305 800.889 307.733V314.78H817.086V307.733C817.086 301.415 816.866 296.635 816.44 293.366C816.014 290.097 815.244 287.803 814.116 286.457C812.989 285.124 811.242 284.451 808.905 284.451C806.554 284.465 804.807 285.179 803.694 286.553V286.553Z" fill="#282828"/>
</g>
</g>
<path id="Vector_6" d="M568.62 369.85H549.66V358.87C542.47 367.11 536.38 371.27 529.73 371.27C523.9 371.27 519.85 368.52 517.83 363.55C516.6 360.53 515.73 355.81 515.73 348.89V269.06H534.69V350.89C535.13 353.69 536.33 354.71 538.73 354.71C542.36 354.71 545.64 351.56 549.66 345.89V269.06H568.62V369.85V369.85ZM482.8 339.91C483.8 349.89 480.7 354.84 474.81 354.84C468.92 354.84 465.83 349.89 466.83 339.91V299.99C465.83 290.01 468.92 285.33 474.81 285.33C480.7 285.33 483.8 290.01 482.81 299.99V339.91H482.8ZM501.76 301.99C501.76 291.22 499.6 283.13 495.77 278.04C490.72 271.14 482.8 268.32 474.81 268.32C465.78 268.32 458.9 271.14 453.85 278.04C449.96 283.13 447.88 291.31 447.88 302.08L447.86 337.92C447.86 348.63 449.71 356.03 453.6 361.07C458.65 367.94 466.83 371.58 474.81 371.58C482.79 371.58 491.12 367.94 496.17 361.07C499.99 356.03 501.76 348.63 501.76 337.92V301.99V301.99ZM426.91 314.96V369.85H406.95V314.96C406.95 314.96 386.27 247.67 382 235.13H402.96L416.97 287.69L430.91 235.12H451.87L426.92 314.95L426.91 314.96Z" fill="black"/>
<g id="Group_2">
<path id="Vector_7" d="M821.1 296.96C821.1 287.63 823.66 285.09 829.69 285.09C835.72 285.09 838.06 287.87 838.06 297.09V307.98L821.1 308V296.96V296.96ZM857.06 322.95V302.55C857.06 291.89 854.96 284.09 851.18 279.05C846.12 272.23 838.93 268.61 829.86 268.61C820.79 268.61 813.44 272.22 808.22 279.05C804.38 284.09 802.14 292.33 802.14 302.99V337.92C802.14 348.52 804.6 355.93 808.44 360.92C813.67 367.73 820.86 371.14 830.31 371.14C839.76 371.14 847.16 367.57 852.16 360.33C854.36 357.13 855.78 353.51 856.39 349.51C856.55 347.7 857.03 343.58 857.03 337.76V334.93H838.07C838.07 342.18 838.11 346.49 837.94 347.47C836.91 352.3 834.32 354.72 829.87 354.72C823.67 354.72 821.04 350.08 821.11 340.88V322.96H857.07L857.06 322.95ZM771.2 340.91C771.2 350.89 768.85 354.72 763.64 354.72C760.67 354.72 757.24 353.19 754.22 350.17L754.24 289.65C757.26 286.67 760.67 285.1 763.64 285.1C768.85 285.1 771.2 288.03 771.2 298.01V340.92V340.91ZM773.3 268.46C766.65 268.46 760.05 272.55 754.21 279.73L754.23 236.13H736.27V369.85H754.23L754.26 359.8C760.3 367.27 766.88 371.13 773.3 371.13C780.49 371.13 785.75 367.28 788.16 359.86C789.36 355.63 790.15 349.13 790.15 339.9V299.98C790.15 290.53 788.94 284.07 787.73 280.06C785.32 272.59 780.48 268.44 773.29 268.44M721.29 369.83H702.33V358.85C695.14 367.09 689.05 371.25 682.4 371.25C676.57 371.25 672.52 368.5 670.5 363.53C669.27 360.51 668.39 355.79 668.39 348.87V270.06H687.35V350.89C687.79 353.69 688.98 354.71 691.39 354.71C695.02 354.71 698.3 351.56 702.32 345.89V270.06H721.28V369.85L721.29 369.83Z" fill="black"/>
<path id="Vector_8" d="M649.45 369.85H629.49V255.08H608.53V236.14L671.4 236.12V255.08H649.44V369.85H649.45Z" fill="black"/>
</g>
<g id="Mask group">
<mask id="mask0_111_28" style="mask-type:alpha" maskUnits="userSpaceOnUse" x="583" y="200" width="299" height="210">
<path id="Vector_9" d="M879.02 246.01C879.02 246.01 876.11 225.57 867.17 216.56C855.84 204.75 843.13 204.69 837.31 203.99C795.61 200.99 733.06 200.99 733.06 200.99H732.93C732.93 200.99 670.38 200.99 628.67 203.99C622.84 204.68 610.15 204.74 598.81 216.56C589.88 225.56 586.97 246.01 586.97 246.01C586.97 246.01 583.99 270.01 583.99 294.02V316.53C583.99 340.54 586.97 364.54 586.97 364.54C586.97 364.54 589.88 384.98 598.81 393.99C610.15 405.81 625.04 405.43 631.67 406.67C655.51 408.95 732.99 409.65 732.99 409.65C732.99 409.65 795.61 409.56 837.31 406.56C843.13 405.87 855.84 405.81 867.17 393.99C876.11 384.98 879.02 364.54 879.02 364.54C879.02 364.54 882 340.53 882 316.53V294.02C882 270.01 879.02 246.01 879.02 246.01Z" fill="#CD201F"/>
</mask>
<g mask="url(#mask0_111_28)">
<g id="Group 9">
<rect id="Rectangle 13" x="72" y="58" width="1121" height="443" fill="#FF0000"/>
<g id="Group 8">
<g id="Group_3">
<path id="Vector_10" d="M821.1 296.96C821.1 287.63 823.66 285.09 829.69 285.09C835.72 285.09 838.06 287.87 838.06 297.09V307.98L821.1 308V296.96V296.96ZM857.06 322.95V302.55C857.06 291.89 854.96 284.09 851.18 279.05C846.12 272.23 838.93 268.61 829.86 268.61C820.79 268.61 813.44 272.22 808.22 279.05C804.38 284.09 802.14 292.33 802.14 302.99V337.92C802.14 348.52 804.6 355.93 808.44 360.92C813.67 367.73 820.86 371.14 830.31 371.14C839.76 371.14 847.16 367.57 852.16 360.33C854.36 357.13 855.78 353.51 856.39 349.51C856.55 347.7 857.03 343.58 857.03 337.76V334.93H838.07C838.07 342.18 838.11 346.49 837.94 347.47C836.91 352.3 834.32 354.72 829.87 354.72C823.67 354.72 821.04 350.08 821.11 340.88V322.96H857.07L857.06 322.95ZM771.2 340.91C771.2 350.89 768.85 354.72 763.64 354.72C760.67 354.72 757.24 353.19 754.22 350.17L754.24 289.65C757.26 286.67 760.67 285.1 763.64 285.1C768.85 285.1 771.2 288.03 771.2 298.01V340.92V340.91ZM773.3 268.46C766.65 268.46 760.05 272.55 754.21 279.73L754.23 236.13H736.27V369.85H754.23L754.26 359.8C760.3 367.27 766.88 371.13 773.3 371.13C780.49 371.13 785.75 367.28 788.16 359.86C789.36 355.63 790.15 349.13 790.15 339.9V299.98C790.15 290.53 788.94 284.07 787.73 280.06C785.32 272.59 780.48 268.44 773.29 268.44M721.29 369.83H702.33V358.85C695.14 367.09 689.05 371.25 682.4 371.25C676.57 371.25 672.52 368.5 670.5 363.53C669.27 360.51 668.39 355.79 668.39 348.87V270.06H687.35V350.89C687.79 353.69 688.98 354.71 691.39 354.71C695.02 354.71 698.3 351.56 702.32 345.89V270.06H721.28V369.85L721.29 369.83Z" fill="white"/>
<path id="Vector_11" d="M649.45 369.85H629.49V255.08H608.53V236.14L671.4 236.12V255.08H649.44V369.85H649.45Z" fill="white"/>
</g>
</g>
</g>
</g>
</g>
</g>
<defs>
<clipPath id="clip0_111_28">
<rect width="704" height="157" fill="white" transform="translate(134 224)"/>
</clipPath>
</defs>
</svg>
